<svg xmlns="http://www.w3.org/2000/svg" xmlns:xlink="http://www.w3.org/1999/xlink" id="Capa_1" width="567.945" height="567.945" x="0" y="0" version="1.1" viewBox="0 0 567.945 567.945" style="enable-background:new 0 0 567.945 567.945" xml:space="preserve"><g><path d="M227.659,567.945h112.618c41.07,0,102.012-32.876,102.012-78.298V83.041C442.289,41.138,398.809,0,354.506,0H213.44 c-44.303,0-87.784,41.128-87.784,83.041v406.607C125.666,535.06,186.588,567.945,227.659,567.945z M237.26,513.42 c-40.851-4.466-60.942-14.669-68.267-19.326c5.719-3.309,22.453-9.753,68.267-12.287V513.42z M307.65,514.883 c-16.717,0.995-35.354,0.976-52.107-0.058v-33.736c8.147-0.248,16.974-0.382,26.651-0.382c9.247,0,17.71,0.124,25.456,0.354 V514.883z M326.01,513.496v-31.747c47.439,2.62,60.684,9.562,64.078,11.991C384.857,497.967,367.73,508.888,326.01,513.496z M234.171,29.672c0.449-1.243,1.53-2.142,2.859-2.333c0.688-0.105,17.403-2.496,43.834-2.496c15.482,0,31.078,0.832,46.359,2.477 c1.348,0.144,2.486,1.033,2.973,2.295c0.488,1.253,0.221,2.678-0.688,3.682c-0.65,0.727-16.438,17.777-47.306,17.777 c-30.849,0-46.655-17.05-47.306-17.777C233.99,32.312,233.731,30.916,234.171,29.672z M161.257,100.435 c0-1.979,1.606-3.586,3.586-3.586h234.692c1.98,0,3.586,1.606,3.586,3.586v320.066c0,1.979-1.605,3.586-3.586,3.586H164.843 c-1.979,0-3.586-1.606-3.586-3.586V100.435z"/></g></svg>